<svg xmlns="http://www.w3.org/2000/svg" viewBox="0 0 1200 630" width="1200" height="630" role="img" aria-label="LIQWD — The Ultimate Broker Portal for New Homes in Ontario">
  <rect width="1200" height="630" fill="#0b1220"/>
  <rect x="576" y="170" width="48" height="2" fill="#14b8a6"/>
  <g transform="translate(326.38 226)">
    <path fill="#2dd4bf" d="M1.46 0.0V-12.07H9.29V-10.38H2.32L3.29 -11.39V-5.84L2.32 -6.71H8.99V-5.08H2.32L3.29 -5.95V0.0Z M14.67 0.0V-12.07H19.48Q20.77 -12.07 21.70 -11.62Q22.64 -11.18 23.15 -10.37Q23.66 -9.55 23.66 -8.43Q23.66 -7.61 23.29 -6.97Q22.93 -6.32 22.32 -5.94Q21.72 -5.55 21.04 -5.50L20.96 -5.66Q22.1 -5.66 22.72 -5.14Q23.35 -4.62 23.46 -3.51L23.78 0.0H21.93L21.64 -3.28Q21.59 -4.01 21.14 -4.36Q20.70 -4.70 19.70 -4.70H16.50V0.0ZM16.50 -6.39H19.51Q20.55 -6.39 21.15 -6.91Q21.76 -7.42 21.76 -8.38Q21.76 -9.35 21.14 -9.86Q20.53 -10.38 19.36 -10.38H16.50Z M29.63 0.0V-12.07H37.48V-10.38H31.46V-6.86H37.28V-5.23H31.46V-1.68H37.62V0.0Z M43.24 0.0V-12.07H51.10V-10.38H45.08V-6.86H50.89V-5.23H45.08V-1.68H51.23V0.0Z M64.53 0.0V-12.07H72.36V-10.38H65.39L66.36 -11.39V-5.84L65.39 -6.71H72.06V-5.08H65.39L66.36 -5.95V0.0Z M82.96 0.27Q81.20 0.27 79.95 -0.48Q78.69 -1.24 78.01 -2.65Q77.33 -4.06 77.33 -6.01Q77.33 -7.97 78.01 -9.39Q78.69 -10.81 79.95 -11.57Q81.20 -12.34 82.96 -12.34Q84.72 -12.34 85.99 -11.57Q87.26 -10.81 87.93 -9.39Q88.60 -7.97 88.60 -6.01Q88.60 -4.06 87.93 -2.65Q87.26 -1.24 85.99 -0.48Q84.72 0.27 82.96 0.27ZM82.96 -1.41Q84.13 -1.41 84.97 -1.95Q85.81 -2.49 86.25 -3.52Q86.7 -4.55 86.7 -6.01Q86.7 -7.48 86.25 -8.51Q85.81 -9.55 84.97 -10.10Q84.13 -10.65 82.96 -10.65Q81.80 -10.65 80.97 -10.10Q80.13 -9.55 79.68 -8.51Q79.23 -7.48 79.23 -6.01Q79.23 -4.55 79.68 -3.52Q80.13 -2.49 80.97 -1.95Q81.80 -1.41 82.96 -1.41Z M94.38 0.0V-12.07H99.19Q100.48 -12.07 101.42 -11.62Q102.35 -11.18 102.86 -10.37Q103.37 -9.55 103.37 -8.43Q103.37 -7.61 103.01 -6.97Q102.64 -6.32 102.04 -5.94Q101.43 -5.55 100.75 -5.50L100.67 -5.66Q101.81 -5.66 102.44 -5.14Q103.07 -4.62 103.17 -3.51L103.49 0.0H101.64L101.35 -3.28Q101.30 -4.01 100.86 -4.36Q100.41 -4.70 99.41 -4.70H96.22V0.0ZM96.22 -6.39H99.22Q100.26 -6.39 100.86 -6.91Q101.47 -7.42 101.47 -8.38Q101.47 -9.35 100.86 -9.86Q100.24 -10.38 99.07 -10.38H96.22Z M120.10 0.0 115.75 -12.07H117.70L121.26 -2.04L124.81 -12.07H126.76L122.4 0.0Z M131.56 0.0V-12.07H139.41V-10.38H133.39V-6.86H139.21V-5.23H133.39V-1.68H139.55V0.0Z M145.18 0.0V-12.07H149.99Q151.28 -12.07 152.21 -11.62Q153.15 -11.18 153.66 -10.37Q154.17 -9.55 154.17 -8.43Q154.17 -7.61 153.80 -6.97Q153.44 -6.32 152.83 -5.94Q152.23 -5.55 151.55 -5.50L151.47 -5.66Q152.60 -5.66 153.23 -5.14Q153.86 -4.62 153.96 -3.51L154.29 0.0H152.43L152.15 -3.28Q152.09 -4.01 151.65 -4.36Q151.21 -4.70 150.21 -4.70H147.01V0.0ZM147.01 -6.39H150.02Q151.06 -6.39 151.66 -6.91Q152.26 -7.42 152.26 -8.38Q152.26 -9.35 151.65 -9.86Q151.04 -10.38 149.87 -10.38H147.01Z M160.14 0.0V-12.07H161.97V0.0Z M167.99 0.0V-12.07H175.83V-10.38H168.86L169.83 -11.39V-5.84L168.86 -6.71H175.52V-5.08H168.86L169.83 -5.95V0.0Z M181.20 0.0V-12.07H183.03V0.0Z M189.05 0.0V-12.07H196.91V-10.38H190.89V-6.86H196.70V-5.23H190.89V-1.68H197.04V0.0Z M202.67 0.0V-12.07H206.55Q209.38 -12.07 210.91 -10.49Q212.44 -8.92 212.44 -6.01Q212.44 -3.12 210.94 -1.56Q209.44 0.0 206.65 0.0ZM204.51 -1.68H206.55Q208.55 -1.68 209.55 -2.76Q210.54 -3.84 210.54 -6.01Q210.54 -8.22 209.55 -9.30Q208.55 -10.38 206.55 -10.38H204.51Z M225.52 0.0V-12.07H230.33Q231.62 -12.07 232.56 -11.62Q233.49 -11.18 234.00 -10.37Q234.51 -9.55 234.51 -8.43Q234.51 -7.61 234.14 -6.97Q233.78 -6.32 233.18 -5.94Q232.57 -5.55 231.89 -5.50L231.81 -5.66Q232.95 -5.66 233.57 -5.14Q234.20 -4.62 234.31 -3.51L234.63 0.0H232.78L232.49 -3.28Q232.44 -4.01 231.99 -4.36Q231.55 -4.70 230.55 -4.70H227.35V0.0ZM227.35 -6.39H230.36Q231.40 -6.39 232.00 -6.91Q232.61 -7.42 232.61 -8.38Q232.61 -9.35 231.99 -9.86Q231.38 -10.38 230.21 -10.38H227.35Z M240.48 0.0V-12.07H248.33V-10.38H242.31V-6.86H248.13V-5.23H242.31V-1.68H248.47V0.0Z M253.11 0.0 257.46 -12.07H259.79L264.14 0.0H262.19L261.08 -3.14H256.15L255.06 0.0ZM256.73 -4.81H260.52L258.62 -10.31Z M269.07 0.0V-12.07H270.91V-0.68L269.94 -1.68H276.79V0.0Z M282.52 0.0V-10.38H278.81V-12.07H288.06V-10.38H284.35V0.0Z M297.36 0.27Q295.61 0.27 294.35 -0.48Q293.09 -1.24 292.41 -2.65Q291.73 -4.06 291.73 -6.01Q291.73 -7.97 292.41 -9.39Q293.09 -10.81 294.35 -11.57Q295.61 -12.34 297.36 -12.34Q299.13 -12.34 300.39 -11.57Q301.66 -10.81 302.33 -9.39Q303.00 -7.97 303.00 -6.01Q303.00 -4.06 302.33 -2.65Q301.66 -1.24 300.39 -0.48Q299.13 0.27 297.36 0.27ZM297.36 -1.41Q298.53 -1.41 299.37 -1.95Q300.22 -2.49 300.66 -3.52Q301.10 -4.55 301.10 -6.01Q301.10 -7.48 300.66 -8.51Q300.22 -9.55 299.37 -10.10Q298.53 -10.65 297.36 -10.65Q296.20 -10.65 295.37 -10.10Q294.54 -9.55 294.09 -8.51Q293.64 -7.48 293.64 -6.01Q293.64 -4.55 294.09 -3.52Q294.54 -2.49 295.37 -1.95Q296.20 -1.41 297.36 -1.41Z M308.78 0.0V-12.07H313.59Q314.89 -12.07 315.82 -11.62Q316.76 -11.18 317.27 -10.37Q317.78 -9.55 317.78 -8.43Q317.78 -7.61 317.41 -6.97Q317.05 -6.32 316.44 -5.94Q315.84 -5.55 315.16 -5.50L315.07 -5.66Q316.21 -5.66 316.84 -5.14Q317.47 -4.62 317.57 -3.51L317.90 0.0H316.04L315.75 -3.28Q315.70 -4.01 315.26 -4.36Q314.82 -4.70 313.82 -4.70H310.62V0.0ZM310.62 -6.39H313.63Q314.67 -6.39 315.27 -6.91Q315.87 -7.42 315.87 -8.38Q315.87 -9.35 315.26 -9.86Q314.65 -10.38 313.48 -10.38H310.62Z M327.84 0.27Q326.40 0.27 325.33 -0.25Q324.27 -0.78 323.66 -1.71Q323.05 -2.65 322.94 -3.89L324.83 -4.01Q324.95 -3.16 325.32 -2.57Q325.70 -1.98 326.34 -1.69Q326.97 -1.39 327.87 -1.39Q328.66 -1.39 329.21 -1.58Q329.76 -1.78 330.05 -2.17Q330.34 -2.56 330.34 -3.12Q330.34 -3.63 330.09 -4.03Q329.85 -4.43 329.16 -4.76Q328.47 -5.10 327.14 -5.42Q325.70 -5.78 324.83 -6.20Q323.96 -6.63 323.58 -7.26Q323.20 -7.90 323.20 -8.84Q323.20 -9.87 323.70 -10.66Q324.20 -11.45 325.14 -11.9Q326.07 -12.34 327.38 -12.34Q328.76 -12.34 329.74 -11.83Q330.71 -11.32 331.28 -10.43Q331.85 -9.55 331.99 -8.41L330.10 -8.31Q330.02 -9.01 329.68 -9.54Q329.34 -10.08 328.76 -10.37Q328.18 -10.67 327.35 -10.67Q326.29 -10.67 325.69 -10.19Q325.09 -9.70 325.09 -8.90Q325.09 -8.39 325.33 -8.04Q325.58 -7.70 326.22 -7.44Q326.85 -7.19 328.03 -6.90Q329.59 -6.54 330.52 -6.02Q331.44 -5.50 331.84 -4.81Q332.23 -4.11 332.23 -3.23Q332.23 -2.15 331.67 -1.36Q331.12 -0.57 330.14 -0.15Q329.15 0.27 327.84 0.27Z M344.79 -4.08V-6.22H346.98V-4.08Z M360.09 0.0V-12.07H364.42Q366.60 -12.07 367.71 -11.28Q368.81 -10.50 368.81 -8.80Q368.81 -8.04 368.49 -7.46Q368.16 -6.88 367.54 -6.55Q366.92 -6.22 366.07 -6.20L366.06 -6.27Q367.60 -6.23 368.46 -5.43Q369.32 -4.62 369.32 -3.31Q369.32 -1.66 368.22 -0.83Q367.11 0.0 365.07 0.0ZM361.93 -1.64H365.02Q366.16 -1.64 366.80 -2.11Q367.43 -2.58 367.43 -3.48Q367.43 -4.36 366.80 -4.86Q366.16 -5.35 365.02 -5.35H361.93ZM361.93 -6.91H364.39Q365.60 -6.91 366.26 -7.37Q366.92 -7.83 366.92 -8.67Q366.92 -9.55 366.29 -9.98Q365.65 -10.42 364.39 -10.42H361.93Z M379.62 0.27Q378.19 0.27 377.13 -0.28Q376.07 -0.83 375.50 -1.85Q374.93 -2.87 374.93 -4.26V-12.07H376.77V-4.26Q376.77 -2.89 377.51 -2.15Q378.26 -1.41 379.62 -1.41Q380.98 -1.41 381.73 -2.15Q382.48 -2.89 382.48 -4.26V-12.07H384.31V-4.26Q384.31 -2.87 383.74 -1.85Q383.18 -0.83 382.12 -0.28Q381.07 0.27 379.62 0.27Z M390.64 0.0V-12.07H392.47V0.0Z M398.80 0.0V-12.07H400.63V-0.68L399.67 -1.68H406.52V0.0Z M412.25 0.0V-10.38H408.54V-12.07H417.79V-10.38H414.08V0.0Z M430.38 0.0V-12.07H432.22V0.0Z M438.24 0.0V-12.07H440.57L446.14 -2.22V-12.07H447.98V0.0H445.57L440.07 -9.62V0.0Z M466.63 0.27Q465.00 0.27 463.76 -0.48Q462.51 -1.24 461.82 -2.65Q461.12 -4.06 461.12 -6.01Q461.12 -7.95 461.81 -9.37Q462.50 -10.79 463.74 -11.56Q464.98 -12.34 466.65 -12.34Q468.89 -12.34 470.13 -11.22Q471.37 -10.09 471.75 -8.10L469.82 -8.00Q469.59 -9.24 468.80 -9.95Q468.02 -10.65 466.65 -10.65Q465.54 -10.65 464.73 -10.09Q463.93 -9.53 463.47 -8.5Q463.02 -7.46 463.02 -6.01Q463.02 -4.57 463.47 -3.53Q463.93 -2.49 464.74 -1.95Q465.56 -1.41 466.63 -1.41Q468.09 -1.41 468.90 -2.18Q469.71 -2.95 469.91 -4.31L471.83 -4.21Q471.61 -2.83 470.95 -1.83Q470.28 -0.83 469.20 -0.28Q468.11 0.27 466.63 0.27Z M475.79 0.0 480.14 -12.07H482.47L486.82 0.0H484.87L483.76 -3.14H478.83L477.75 0.0ZM479.41 -4.81H483.20L481.30 -10.31Z M491.65 0.0V-12.07H493.98L499.56 -2.22V-12.07H501.39V0.0H498.98L493.49 -9.62V0.0Z M506.43 0.0 510.78 -12.07H513.11L517.46 0.0H515.50L514.40 -3.14H509.47L508.38 0.0ZM510.05 -4.81H513.84L511.93 -10.31Z M522.29 0.0V-12.07H526.16Q529.00 -12.07 530.53 -10.49Q532.06 -8.92 532.06 -6.01Q532.06 -3.12 530.56 -1.56Q529.05 0.0 526.26 0.0ZM524.12 -1.68H526.16Q528.17 -1.68 529.16 -2.76Q530.16 -3.84 530.16 -6.01Q530.16 -8.22 529.16 -9.30Q528.17 -10.38 526.16 -10.38H524.12Z M535.87 0.0 540.22 -12.07H542.55L546.90 0.0H544.95L543.84 -3.14H538.91L537.82 0.0ZM539.49 -4.81H543.28L541.38 -10.31Z"/>
  </g>
  <g transform="translate(330.75 390)">
    <path fill="#ffffff" d="M12.0 0.0V-106.5H31.5V-6.0L20.84 -16.95H82.05V0.0Z M90.45 0.0V-106.5H109.95V0.0Z M199.8 9.6 191.39 -1.05Q187.95 0.44 183.07 1.42Q178.2 2.4 172.5 2.4Q156.9 2.4 145.65 -4.8Q134.4 -12.0 128.32 -24.59Q122.25 -37.19 122.25 -53.1Q122.25 -68.85 128.02 -81.44Q133.8 -94.05 145.12 -101.47Q156.45 -108.89 172.5 -108.89Q188.85 -108.89 200.1 -101.47Q211.35 -94.05 217.12 -81.44Q222.89 -68.85 222.89 -53.1Q222.89 -38.4 217.79 -26.77Q212.7 -15.14 203.25 -7.64L217.05 9.6ZM172.5 -14.54Q175.05 -14.54 177.0 -14.84Q178.95 -15.14 180.45 -15.75L165.6 -34.35H182.7L191.7 -22.5Q197.1 -27.3 199.95 -34.87Q202.8 -42.44 202.8 -53.1Q202.8 -63.59 199.57 -72.37Q196.35 -81.14 189.67 -86.55Q183.0 -91.95 172.5 -91.95Q162.15 -91.95 155.47 -86.55Q148.8 -81.14 145.57 -72.37Q142.35 -63.59 142.35 -53.1Q142.35 -42.75 145.64 -33.97Q148.95 -25.2 155.62 -19.87Q162.3 -14.54 172.5 -14.54Z M253.2 0.0 224.70 -106.5H245.25L264.75 -27.0L284.4 -106.5H302.55L322.2 -27.0L341.55 -106.5H362.25L333.75 0.0H312.15L293.55 -72.89L274.95 0.0Z M372.3 0.0V-106.5H407.7Q433.2 -106.5 446.92 -92.62Q460.65 -78.75 460.65 -53.1Q460.65 -27.59 447.15 -13.79Q433.65 0.0 408.6 0.0ZM391.8 -16.95H407.7Q424.35 -16.95 432.45 -25.94Q440.55 -34.94 440.55 -53.1Q440.55 -71.55 432.45 -80.55Q424.35 -89.55 407.7 -89.55H391.8Z"/>
    <circle fill="#2dd4bf" cx="504.00" cy="-22.50" r="22.50"/>
  </g>
  <g transform="translate(231.87 470)">
    <path fill="#94a3b8" d="M6.89 0.0V-18.33H0.36V-21.3H16.68V-18.33H10.13V0.0Z M18.50 0.0V-21.3H21.68V-12.36L21.29 -12.42Q21.56 -13.77 22.29 -14.62Q23.00 -15.47 24.06 -15.89Q25.11 -16.32 26.36 -16.32Q28.11 -16.32 29.31 -15.55Q30.50 -14.79 31.12 -13.41Q31.73 -12.03 31.73 -10.26V0.0H28.55V-9.42Q28.55 -11.58 27.82 -12.61Q27.08 -13.65 25.52 -13.65Q23.79 -13.65 22.74 -12.55Q21.68 -11.45 21.68 -9.36V0.0Z M42.44 0.36Q40.10 0.36 38.41 -0.65Q36.72 -1.68 35.80 -3.57Q34.88 -5.46 34.88 -7.97Q34.88 -10.5 35.80 -12.37Q36.72 -14.25 38.4 -15.28Q40.08 -16.32 42.36 -16.32Q44.51 -16.32 46.16 -15.31Q47.81 -14.30 48.73 -12.41Q49.64 -10.53 49.64 -7.85V-7.05H38.19Q38.30 -4.71 39.43 -3.54Q40.55 -2.37 42.48 -2.37Q43.88 -2.37 44.81 -3.03Q45.74 -3.69 46.11 -4.8L49.41 -4.59Q48.77 -2.37 46.93 -1.00Q45.08 0.36 42.44 0.36ZM38.19 -9.45H46.28Q46.13 -11.58 45.07 -12.6Q44.00 -13.62 42.36 -13.62Q40.64 -13.62 39.55 -12.55Q38.45 -11.49 38.19 -9.45Z M68.61 0.48Q66.08 0.48 64.21 -0.49Q62.33 -1.47 61.33 -3.26Q60.33 -5.06 60.33 -7.52V-21.3H63.56V-7.52Q63.56 -5.1 64.88 -3.79Q66.21 -2.48 68.61 -2.48Q71.00 -2.48 72.32 -3.79Q73.64 -5.1 73.64 -7.52V-21.3H76.88V-7.52Q76.88 -5.06 75.88 -3.26Q74.88 -1.47 73.02 -0.49Q71.16 0.48 68.61 0.48Z M84.75 0.0Q83.19 0.0 82.22 -0.80Q81.27 -1.61 81.27 -3.38V-21.3H84.44V-3.69Q84.44 -3.15 84.73 -2.88Q85.02 -2.61 85.56 -2.61H86.82V0.0Z M94.41 0.0Q92.13 0.0 91.05 -1.05Q89.97 -2.1 89.97 -4.32V-19.71H93.14V-4.56Q93.14 -3.44 93.63 -3.03Q94.10 -2.61 95.1 -2.61H97.38V0.0ZM87.53 -13.35V-15.95H97.38V-13.35Z M100.17 0.0V-15.95H103.35V0.0ZM100.11 -18.27V-21.45H103.41V-18.27Z M108.03 0.0V-15.95H110.94L111.03 -12.0L110.67 -12.12Q110.94 -13.44 111.61 -14.37Q112.29 -15.29 113.28 -15.80Q114.27 -16.32 115.44 -16.32Q117.48 -16.32 118.77 -15.16Q120.06 -14.01 120.39 -12.0H119.88Q120.15 -13.41 120.79 -14.35Q121.44 -15.29 122.46 -15.80Q123.48 -16.32 124.77 -16.32Q126.45 -16.32 127.63 -15.61Q128.82 -14.91 129.43 -13.55Q130.05 -12.20 130.05 -10.26V0.0H126.87V-9.48Q126.87 -11.54 126.12 -12.6Q125.37 -13.65 123.84 -13.65Q122.85 -13.65 122.1 -13.14Q121.35 -12.62 120.94 -11.66Q120.54 -10.70 120.54 -9.36V0.0H117.51V-9.36Q117.51 -11.4 116.83 -12.52Q116.16 -13.65 114.54 -13.65Q113.52 -13.65 112.78 -13.14Q112.05 -12.62 111.63 -11.65Q111.21 -10.68 111.21 -9.36V0.0Z M138.72 0.36Q136.23 0.36 134.74 -0.78Q133.26 -1.92 133.26 -3.98Q133.26 -6.06 134.50 -7.21Q135.75 -8.37 138.36 -8.87L143.85 -9.93Q143.85 -11.79 142.98 -12.70Q142.11 -13.62 140.4 -13.62Q138.87 -13.62 138.0 -12.94Q137.13 -12.27 136.8 -10.95L133.53 -11.16Q133.98 -13.55 135.76 -14.94Q137.55 -16.32 140.4 -16.32Q143.64 -16.32 145.33 -14.59Q147.03 -12.87 147.03 -9.75V-3.54Q147.03 -2.96 147.22 -2.74Q147.42 -2.52 147.87 -2.52H148.44V0.0Q148.29 0.03 147.95 0.06Q147.63 0.09 147.27 0.09Q146.25 0.09 145.51 -0.24Q144.78 -0.57 144.42 -1.33Q144.06 -2.1 144.06 -3.38L144.39 -3.23Q144.15 -2.19 143.35 -1.38Q142.56 -0.57 141.34 -0.10Q140.13 0.36 138.72 0.36ZM139.23 -2.16Q140.67 -2.16 141.69 -2.71Q142.71 -3.27 143.28 -4.26Q143.85 -5.25 143.85 -6.51V-7.52L139.17 -6.63Q137.73 -6.35 137.14 -5.77Q136.56 -5.18 136.56 -4.29Q136.56 -3.27 137.26 -2.71Q137.97 -2.16 139.23 -2.16Z M155.88 0.0Q153.6 0.0 152.51 -1.05Q151.44 -2.1 151.44 -4.32V-19.71H154.62V-4.56Q154.62 -3.44 155.1 -3.03Q155.57 -2.61 156.57 -2.61H158.85V0.0ZM149.01 -13.35V-15.95H158.85V-13.35Z M168.17 0.36Q165.83 0.36 164.14 -0.65Q162.45 -1.68 161.53 -3.57Q160.61 -5.46 160.61 -7.97Q160.61 -10.5 161.53 -12.37Q162.45 -14.25 164.13 -15.28Q165.80 -16.32 168.08 -16.32Q170.24 -16.32 171.89 -15.31Q173.54 -14.30 174.46 -12.41Q175.38 -10.53 175.38 -7.85V-7.05H163.92Q164.04 -4.71 165.16 -3.54Q166.29 -2.37 168.20 -2.37Q169.61 -2.37 170.54 -3.03Q171.48 -3.69 171.83 -4.8L175.14 -4.59Q174.51 -2.37 172.66 -1.00Q170.82 0.36 168.17 0.36ZM163.92 -9.45H172.01Q171.86 -11.58 170.80 -12.6Q169.73 -13.62 168.08 -13.62Q166.38 -13.62 165.28 -12.55Q164.19 -11.49 163.92 -9.45Z M186.51 0.0V-21.3H194.16Q198.0 -21.3 199.95 -19.92Q201.9 -18.54 201.9 -15.54Q201.9 -14.19 201.32 -13.17Q200.76 -12.15 199.66 -11.56Q198.57 -10.98 197.07 -10.95L197.04 -11.07Q199.77 -11.01 201.28 -9.58Q202.8 -8.16 202.8 -5.85Q202.8 -2.94 200.85 -1.47Q198.9 0.0 195.3 0.0ZM189.75 -2.90H195.21Q197.22 -2.90 198.34 -3.73Q199.47 -4.56 199.47 -6.14Q199.47 -7.71 198.34 -8.58Q197.22 -9.45 195.21 -9.45H189.75ZM189.75 -12.20H194.1Q196.23 -12.20 197.4 -13.02Q198.57 -13.83 198.57 -15.29Q198.57 -16.86 197.44 -17.62Q196.32 -18.39 194.1 -18.39H189.75Z M206.51 0.0V-15.95H209.42L209.54 -11.73L209.27 -11.82Q209.60 -13.97 210.61 -14.96Q211.61 -15.95 213.32 -15.95H214.85V-13.11H213.32Q212.13 -13.11 211.32 -12.71Q210.51 -12.33 210.10 -11.52Q209.7 -10.70 209.7 -9.42V0.0Z M223.70 0.36Q221.42 0.36 219.71 -0.65Q218.01 -1.68 217.07 -3.57Q216.14 -5.46 216.14 -7.97Q216.14 -10.53 217.07 -12.39Q218.01 -14.25 219.71 -15.28Q221.42 -16.32 223.70 -16.32Q225.98 -16.32 227.7 -15.28Q229.41 -14.25 230.33 -12.39Q231.26 -10.53 231.26 -7.97Q231.26 -5.46 230.33 -3.57Q229.41 -1.68 227.7 -0.65Q225.98 0.36 223.70 0.36ZM223.70 -2.4Q225.75 -2.4 226.86 -3.88Q227.97 -5.37 227.97 -7.97Q227.97 -10.59 226.86 -12.07Q225.75 -13.55 223.70 -13.55Q221.7 -13.55 220.57 -12.07Q219.45 -10.59 219.45 -7.97Q219.45 -5.37 220.57 -3.88Q221.7 -2.4 223.70 -2.4Z M234.48 0.0V-21.3H237.66V-8.07L244.82 -15.95H248.85L242.60 -9.24L249.08 0.0H245.42L240.48 -7.26L237.66 -4.26V0.0Z M257.61 0.36Q255.26 0.36 253.57 -0.65Q251.88 -1.68 250.96 -3.57Q250.04 -5.46 250.04 -7.97Q250.04 -10.5 250.96 -12.37Q251.88 -14.25 253.56 -15.28Q255.23 -16.32 257.52 -16.32Q259.68 -16.32 261.33 -15.31Q262.98 -14.30 263.89 -12.41Q264.81 -10.53 264.81 -7.85V-7.05H253.35Q253.47 -4.71 254.59 -3.54Q255.72 -2.37 257.64 -2.37Q259.05 -2.37 259.98 -3.03Q260.90 -3.69 261.27 -4.8L264.57 -4.59Q263.94 -2.37 262.09 -1.00Q260.25 0.36 257.61 0.36ZM253.35 -9.45H261.45Q261.3 -11.58 260.23 -12.6Q259.17 -13.62 257.52 -13.62Q255.81 -13.62 254.71 -12.55Q253.62 -11.49 253.35 -9.45Z M268.02 0.0V-15.95H270.93L271.04 -11.73L270.78 -11.82Q271.10 -13.97 272.11 -14.96Q273.12 -15.95 274.83 -15.95H276.35V-13.11H274.83Q273.63 -13.11 272.82 -12.71Q272.01 -12.33 271.60 -11.52Q271.2 -10.70 271.2 -9.42V0.0Z M287.46 0.0V-21.3H295.40Q299.07 -21.3 301.11 -19.54Q303.15 -17.79 303.15 -14.67Q303.15 -12.6 302.22 -11.08Q301.29 -9.57 299.56 -8.77Q297.84 -7.97 295.40 -7.97H290.7V0.0ZM290.7 -10.92H295.32Q297.51 -10.92 298.65 -11.86Q299.79 -12.80 299.79 -14.67Q299.79 -16.5 298.65 -17.41Q297.51 -18.33 295.32 -18.33H290.7Z M312.57 0.36Q310.29 0.36 308.58 -0.65Q306.87 -1.68 305.94 -3.57Q305.01 -5.46 305.01 -7.97Q305.01 -10.53 305.94 -12.39Q306.87 -14.25 308.58 -15.28Q310.29 -16.32 312.57 -16.32Q314.85 -16.32 316.56 -15.28Q318.27 -14.25 319.2 -12.39Q320.13 -10.53 320.13 -7.97Q320.13 -5.46 319.2 -3.57Q318.27 -1.68 316.56 -0.65Q314.85 0.36 312.57 0.36ZM312.57 -2.4Q314.61 -2.4 315.72 -3.88Q316.83 -5.37 316.83 -7.97Q316.83 -10.59 315.72 -12.07Q314.61 -13.55 312.57 -13.55Q310.56 -13.55 309.43 -12.07Q308.31 -10.59 308.31 -7.97Q308.31 -5.37 309.43 -3.88Q310.56 -2.4 312.57 -2.4Z M323.34 0.0V-15.95H326.25L326.36 -11.73L326.09 -11.82Q326.42 -13.97 327.43 -14.96Q328.44 -15.95 330.15 -15.95H331.67V-13.11H330.15Q328.95 -13.11 328.14 -12.71Q327.33 -12.33 326.92 -11.52Q326.52 -10.70 326.52 -9.42V0.0Z M339.96 0.0Q337.67 0.0 336.59 -1.05Q335.52 -2.1 335.52 -4.32V-19.71H338.7V-4.56Q338.7 -3.44 339.17 -3.03Q339.65 -2.61 340.65 -2.61H342.92V0.0ZM333.09 -13.35V-15.95H342.92V-13.35Z M350.34 0.36Q347.85 0.36 346.36 -0.78Q344.88 -1.92 344.88 -3.98Q344.88 -6.06 346.12 -7.21Q347.37 -8.37 349.98 -8.87L355.47 -9.93Q355.47 -11.79 354.6 -12.70Q353.73 -13.62 352.02 -13.62Q350.49 -13.62 349.62 -12.94Q348.75 -12.27 348.42 -10.95L345.15 -11.16Q345.6 -13.55 347.38 -14.94Q349.17 -16.32 352.02 -16.32Q355.26 -16.32 356.95 -14.59Q358.65 -12.87 358.65 -9.75V-3.54Q358.65 -2.96 358.84 -2.74Q359.04 -2.52 359.49 -2.52H360.06V0.0Q359.91 0.03 359.58 0.06Q359.25 0.09 358.89 0.09Q357.87 0.09 357.13 -0.24Q356.4 -0.57 356.03 -1.33Q355.68 -2.1 355.68 -3.38L356.01 -3.23Q355.77 -2.19 354.97 -1.38Q354.18 -0.57 352.96 -0.10Q351.75 0.36 350.34 0.36ZM350.85 -2.16Q352.29 -2.16 353.31 -2.71Q354.33 -3.27 354.9 -4.26Q355.47 -5.25 355.47 -6.51V-7.52L350.79 -6.63Q349.35 -6.35 348.76 -5.77Q348.18 -5.18 348.18 -4.29Q348.18 -3.27 348.88 -2.71Q349.59 -2.16 350.85 -2.16Z M366.0 0.0Q364.44 0.0 363.48 -0.80Q362.52 -1.61 362.52 -3.38V-21.3H365.7V-3.69Q365.7 -3.15 365.98 -2.88Q366.27 -2.61 366.81 -2.61H368.07V0.0Z M379.89 0.0V-16.98Q379.89 -18.96 381.0 -20.13Q382.10 -21.3 384.45 -21.3H387.29V-18.68H384.9Q383.96 -18.68 383.52 -18.19Q383.07 -17.7 383.07 -16.8V0.0ZM377.66 -13.35V-15.95H387.06V-13.35Z M395.94 0.36Q393.66 0.36 391.95 -0.65Q390.24 -1.68 389.31 -3.57Q388.38 -5.46 388.38 -7.97Q388.38 -10.53 389.31 -12.39Q390.24 -14.25 391.95 -15.28Q393.66 -16.32 395.94 -16.32Q398.22 -16.32 399.93 -15.28Q401.64 -14.25 402.57 -12.39Q403.5 -10.53 403.5 -7.97Q403.5 -5.46 402.57 -3.57Q401.64 -1.68 399.93 -0.65Q398.22 0.36 395.94 0.36ZM395.94 -2.4Q397.98 -2.4 399.09 -3.88Q400.2 -5.37 400.2 -7.97Q400.2 -10.59 399.09 -12.07Q397.98 -13.55 395.94 -13.55Q393.93 -13.55 392.80 -12.07Q391.68 -10.59 391.68 -7.97Q391.68 -5.37 392.80 -3.88Q393.93 -2.4 395.94 -2.4Z M406.71 0.0V-15.95H409.62L409.73 -11.73L409.46 -11.82Q409.79 -13.97 410.80 -14.96Q411.81 -15.95 413.52 -15.95H415.04V-13.11H413.52Q412.32 -13.11 411.51 -12.71Q410.7 -12.33 410.29 -11.52Q409.89 -10.70 409.89 -9.42V0.0Z M426.15 0.0V-21.3H430.26L440.1 -3.92V-21.3H443.34V0.0H439.08L429.39 -16.98V0.0Z M454.44 0.36Q452.1 0.36 450.40 -0.65Q448.71 -1.68 447.79 -3.57Q446.88 -5.46 446.88 -7.97Q446.88 -10.5 447.79 -12.37Q448.71 -14.25 450.39 -15.28Q452.07 -16.32 454.35 -16.32Q456.51 -16.32 458.15 -15.31Q459.81 -14.30 460.72 -12.41Q461.64 -10.53 461.64 -7.85V-7.05H450.18Q450.3 -4.71 451.42 -3.54Q452.55 -2.37 454.47 -2.37Q455.88 -2.37 456.81 -3.03Q457.74 -3.69 458.1 -4.8L461.4 -4.59Q460.77 -2.37 458.92 -1.00Q457.08 0.36 454.44 0.36ZM450.18 -9.45H458.28Q458.13 -11.58 457.06 -12.6Q456.0 -13.62 454.35 -13.62Q452.64 -13.62 451.54 -12.55Q450.45 -11.49 450.18 -9.45Z M467.64 0.0 462.78 -15.95H466.11L469.53 -3.48L473.04 -15.95H476.04L479.55 -3.48L483.0 -15.95H486.33L481.47 0.0H477.9L474.54 -11.4L471.18 0.0Z M496.85 0.0V-21.3H500.09V-11.04L498.53 -12.18H511.5L509.94 -11.04V-21.3H513.18V0.0H509.94V-10.37L511.5 -9.24H498.53L500.09 -10.37V0.0Z M524.28 0.36Q522.0 0.36 520.29 -0.65Q518.58 -1.68 517.65 -3.57Q516.72 -5.46 516.72 -7.97Q516.72 -10.53 517.65 -12.39Q518.58 -14.25 520.29 -15.28Q522.0 -16.32 524.28 -16.32Q526.56 -16.32 528.27 -15.28Q529.98 -14.25 530.91 -12.39Q531.84 -10.53 531.84 -7.97Q531.84 -5.46 530.91 -3.57Q529.98 -1.68 528.27 -0.65Q526.56 0.36 524.28 0.36ZM524.28 -2.4Q526.32 -2.4 527.43 -3.88Q528.54 -5.37 528.54 -7.97Q528.54 -10.59 527.43 -12.07Q526.32 -13.55 524.28 -13.55Q522.27 -13.55 521.14 -12.07Q520.02 -10.59 520.02 -7.97Q520.02 -5.37 521.14 -3.88Q522.27 -2.4 524.28 -2.4Z M535.05 0.0V-15.95H537.95L538.05 -12.0L537.68 -12.12Q537.95 -13.44 538.63 -14.37Q539.31 -15.29 540.3 -15.80Q541.29 -16.32 542.45 -16.32Q544.5 -16.32 545.79 -15.16Q547.07 -14.01 547.41 -12.0H546.9Q547.17 -13.41 547.81 -14.35Q548.45 -15.29 549.48 -15.80Q550.5 -16.32 551.79 -16.32Q553.46 -16.32 554.65 -15.61Q555.83 -14.91 556.45 -13.55Q557.06 -12.20 557.06 -10.26V0.0H553.89V-9.48Q553.89 -11.54 553.14 -12.6Q552.39 -13.65 550.85 -13.65Q549.87 -13.65 549.12 -13.14Q548.37 -12.62 547.96 -11.66Q547.56 -10.70 547.56 -9.36V0.0H544.53V-9.36Q544.53 -11.4 543.85 -12.52Q543.18 -13.65 541.56 -13.65Q540.54 -13.65 539.80 -13.14Q539.06 -12.62 538.64 -11.65Q538.22 -10.68 538.22 -9.36V0.0Z M567.81 0.36Q565.47 0.36 563.77 -0.65Q562.08 -1.68 561.16 -3.57Q560.25 -5.46 560.25 -7.97Q560.25 -10.5 561.16 -12.37Q562.08 -14.25 563.76 -15.28Q565.44 -16.32 567.72 -16.32Q569.88 -16.32 571.53 -15.31Q573.18 -14.30 574.09 -12.41Q575.01 -10.53 575.01 -7.85V-7.05H563.55Q563.67 -4.71 564.79 -3.54Q565.92 -2.37 567.84 -2.37Q569.25 -2.37 570.18 -3.03Q571.11 -3.69 571.47 -4.8L574.77 -4.59Q574.14 -2.37 572.29 -1.00Q570.45 0.36 567.81 0.36ZM563.55 -9.45H571.65Q571.5 -11.58 570.43 -12.6Q569.37 -13.62 567.72 -13.62Q566.01 -13.62 564.91 -12.55Q563.82 -11.49 563.55 -9.45Z M584.37 0.36Q582.06 0.36 580.51 -0.33Q578.97 -1.02 578.16 -2.23Q577.35 -3.44 577.23 -5.04L580.5 -5.18Q580.74 -3.86 581.61 -3.09Q582.48 -2.31 584.37 -2.31Q585.87 -2.31 586.66 -2.79Q587.46 -3.27 587.46 -4.32Q587.46 -4.92 587.19 -5.31Q586.92 -5.7 586.14 -5.98Q585.36 -6.27 583.83 -6.54Q581.49 -6.98 580.18 -7.60Q578.88 -8.21 578.34 -9.13Q577.80 -10.04 577.80 -11.37Q577.80 -13.55 579.45 -14.94Q581.1 -16.32 584.22 -16.32Q586.41 -16.32 587.82 -15.58Q589.23 -14.85 589.95 -13.64Q590.67 -12.45 590.82 -11.07L587.55 -10.88Q587.52 -11.63 587.14 -12.27Q586.77 -12.9 586.05 -13.27Q585.33 -13.65 584.16 -13.65Q582.6 -13.65 581.85 -13.05Q581.1 -12.45 581.1 -11.49Q581.1 -10.77 581.40 -10.32Q581.7 -9.87 582.45 -9.58Q583.2 -9.29 584.46 -9.09Q586.89 -8.7 588.27 -8.08Q589.65 -7.47 590.20 -6.55Q590.76 -5.64 590.76 -4.35Q590.76 -2.1 589.00 -0.87Q587.25 0.36 584.37 0.36Z M601.62 0.0V-15.95H604.8V0.0ZM601.56 -18.27V-21.45H604.85V-18.27Z M609.48 0.0V-15.95H612.39L612.51 -11.7L612.12 -11.91Q612.39 -13.46 613.14 -14.43Q613.89 -15.38 614.97 -15.85Q616.05 -16.32 617.31 -16.32Q619.11 -16.32 620.29 -15.52Q621.48 -14.72 622.09 -13.36Q622.71 -12.0 622.71 -10.26V0.0H619.53V-9.29Q619.53 -10.70 619.23 -11.66Q618.93 -12.62 618.24 -13.14Q617.55 -13.65 616.44 -13.65Q614.76 -13.65 613.71 -12.54Q612.66 -11.43 612.66 -9.29V0.0Z M643.5 0.48Q640.41 0.48 638.19 -0.85Q635.97 -2.19 634.77 -4.68Q633.57 -7.17 633.57 -10.62Q633.57 -14.07 634.77 -16.57Q635.97 -19.08 638.19 -20.43Q640.41 -21.77 643.5 -21.77Q646.62 -21.77 648.85 -20.43Q651.09 -19.08 652.27 -16.57Q653.46 -14.07 653.46 -10.62Q653.46 -7.17 652.27 -4.68Q651.09 -2.19 648.85 -0.85Q646.62 0.48 643.5 0.48ZM643.5 -2.48Q645.57 -2.48 647.05 -3.45Q648.54 -4.41 649.31 -6.22Q650.1 -8.04 650.1 -10.62Q650.1 -13.2 649.31 -15.03Q648.54 -16.86 647.05 -17.83Q645.57 -18.81 643.5 -18.81Q641.46 -18.81 639.99 -17.83Q638.52 -16.86 637.72 -15.03Q636.93 -13.2 636.93 -10.62Q636.93 -8.04 637.72 -6.22Q638.52 -4.41 639.99 -3.45Q641.46 -2.48 643.5 -2.48Z M657.03 0.0V-15.95H659.93L660.06 -11.7L659.67 -11.91Q659.93 -13.46 660.68 -14.43Q661.43 -15.38 662.52 -15.85Q663.6 -16.32 664.86 -16.32Q666.66 -16.32 667.84 -15.52Q669.03 -14.72 669.64 -13.36Q670.26 -12.0 670.26 -10.26V0.0H667.07V-9.29Q667.07 -10.70 666.78 -11.66Q666.48 -12.62 665.79 -13.14Q665.1 -13.65 663.99 -13.65Q662.31 -13.65 661.26 -12.54Q660.20 -11.43 660.20 -9.29V0.0Z M679.74 0.0Q677.46 0.0 676.38 -1.05Q675.3 -2.1 675.3 -4.32V-19.71H678.48V-4.56Q678.48 -3.44 678.96 -3.03Q679.44 -2.61 680.43 -2.61H682.71V0.0ZM672.87 -13.35V-15.95H682.71V-13.35Z M690.12 0.36Q687.63 0.36 686.14 -0.78Q684.66 -1.92 684.66 -3.98Q684.66 -6.06 685.90 -7.21Q687.15 -8.37 689.76 -8.87L695.25 -9.93Q695.25 -11.79 694.38 -12.70Q693.51 -13.62 691.8 -13.62Q690.27 -13.62 689.4 -12.94Q688.53 -12.27 688.19 -10.95L684.93 -11.16Q685.38 -13.55 687.16 -14.94Q688.94 -16.32 691.8 -16.32Q695.04 -16.32 696.73 -14.59Q698.43 -12.87 698.43 -9.75V-3.54Q698.43 -2.96 698.62 -2.74Q698.81 -2.52 699.27 -2.52H699.83V0.0Q699.68 0.03 699.35 0.06Q699.03 0.09 698.67 0.09Q697.65 0.09 696.91 -0.24Q696.18 -0.57 695.81 -1.33Q695.45 -2.1 695.45 -3.38L695.79 -3.23Q695.55 -2.19 694.75 -1.38Q693.95 -0.57 692.74 -0.10Q691.53 0.36 690.12 0.36ZM690.63 -2.16Q692.06 -2.16 693.08 -2.71Q694.11 -3.27 694.68 -4.26Q695.25 -5.25 695.25 -6.51V-7.52L690.56 -6.63Q689.13 -6.35 688.54 -5.77Q687.95 -5.18 687.95 -4.29Q687.95 -3.27 688.66 -2.71Q689.37 -2.16 690.63 -2.16Z M702.51 0.0V-15.95H705.42L705.54 -11.73L705.27 -11.82Q705.6 -13.97 706.60 -14.96Q707.61 -15.95 709.31 -15.95H710.85V-13.11H709.31Q708.12 -13.11 707.31 -12.71Q706.5 -12.33 706.09 -11.52Q705.68 -10.70 705.68 -9.42V0.0Z M713.49 0.0V-15.95H716.67V0.0ZM713.43 -18.27V-21.45H716.72V-18.27Z M727.44 0.36Q725.16 0.36 723.45 -0.65Q721.74 -1.68 720.81 -3.57Q719.88 -5.46 719.88 -7.97Q719.88 -10.53 720.81 -12.39Q721.74 -14.25 723.45 -15.28Q725.16 -16.32 727.44 -16.32Q729.72 -16.32 731.43 -15.28Q733.14 -14.25 734.06 -12.39Q735.0 -10.53 735.0 -7.97Q735.0 -5.46 734.06 -3.57Q733.14 -1.68 731.43 -0.65Q729.72 0.36 727.44 0.36ZM727.44 -2.4Q729.48 -2.4 730.59 -3.88Q731.7 -5.37 731.7 -7.97Q731.7 -10.59 730.59 -12.07Q729.48 -13.55 727.44 -13.55Q725.43 -13.55 724.30 -12.07Q723.18 -10.59 723.18 -7.97Q723.18 -5.37 724.30 -3.88Q725.43 -2.4 727.44 -2.4Z"/>
  </g>
</svg>
