<svg xmlns="http://www.w3.org/2000/svg" viewBox="-2.00 -82.60 363.00 99.00" width="363" height="99" role="img" aria-label="LIQWD">
  <path fill="#0b1220" d="M8.0 0.0V-71.0H21.0V-4.0L13.9 -11.3H54.7V0.0Z M60.30 0.0V-71.0H73.30V0.0Z M133.2 6.4 127.60 -0.70Q125.30 0.30 122.05 0.95Q118.80 1.6 115.0 1.6Q104.60 1.6 97.10 -3.2Q89.60 -8.0 85.55 -16.4Q81.5 -24.8 81.5 -35.4Q81.5 -45.90 85.35 -54.30Q89.2 -62.7 96.75 -67.65Q104.30 -72.60 115.0 -72.60Q125.9 -72.60 133.4 -67.65Q140.9 -62.7 144.75 -54.30Q148.60 -45.90 148.60 -35.4Q148.60 -25.6 145.20 -17.85Q141.8 -10.10 135.5 -5.10L144.7 6.4ZM115.0 -9.70Q116.7 -9.70 118.0 -9.90Q119.30 -10.10 120.30 -10.5L110.4 -22.90H121.80L127.80 -15.0Q131.4 -18.2 133.3 -23.25Q135.2 -28.3 135.2 -35.4Q135.2 -42.40 133.05 -48.25Q130.9 -54.1 126.45 -57.7Q122.0 -61.30 115.0 -61.30Q108.10 -61.30 103.65 -57.7Q99.2 -54.1 97.05 -48.25Q94.9 -42.40 94.9 -35.4Q94.9 -28.5 97.10 -22.65Q99.30 -16.8 103.75 -13.25Q108.2 -9.70 115.0 -9.70Z M168.8 0.0 149.79 -71.0H163.5L176.5 -18.0L189.6 -71.0H201.7L214.8 -18.0L227.7 -71.0H241.5L222.5 0.0H208.1L195.7 -48.6L183.3 0.0Z M248.20 0.0V-71.0H271.8Q288.8 -71.0 297.95 -61.75Q307.1 -52.5 307.1 -35.4Q307.1 -18.40 298.1 -9.20Q289.1 0.0 272.40 0.0ZM261.20 -11.3H271.8Q282.90 -11.3 288.30 -17.3Q293.70 -23.3 293.70 -35.4Q293.70 -47.7 288.30 -53.7Q282.90 -59.7 271.8 -59.7H261.20Z"/>
  <circle fill="#14b8a6" cx="336.00" cy="-15.00" r="15.00"/>
</svg>
